<mxfile host="app.diagrams.net" modified="2021-06-04T04:31:55.890Z" agent="5.0 (Macintosh; Intel Mac OS X 10_13_6) AppleWebKit/537.36 (KHTML, like Gecko) Chrome/90.0.4430.72 Safari/537.36" etag="cdMSq4qkXQFqrdqaeBg6" version="14.7.5" type="github">
  <diagram id="e_BotlGgORCQEu0wKGSg" name="Page-1">
    <mxGraphModel dx="1426" dy="793" grid="1" gridSize="10" guides="1" tooltips="1" connect="1" arrows="1" fold="1" page="1" pageScale="1" pageWidth="827" pageHeight="1169" math="0" shadow="0">
      <root>
        <mxCell id="0" />
        <mxCell id="1" parent="0" />
        <mxCell id="ckYTwGQyP7OyvQcxoSIF-8" value="" style="edgeStyle=orthogonalEdgeStyle;rounded=0;orthogonalLoop=1;jettySize=auto;html=1;" edge="1" parent="1" source="ckYTwGQyP7OyvQcxoSIF-1" target="ckYTwGQyP7OyvQcxoSIF-2">
          <mxGeometry relative="1" as="geometry" />
        </mxCell>
        <mxCell id="ckYTwGQyP7OyvQcxoSIF-18" value="" style="edgeStyle=orthogonalEdgeStyle;rounded=0;orthogonalLoop=1;jettySize=auto;html=1;" edge="1" parent="1" source="ckYTwGQyP7OyvQcxoSIF-1">
          <mxGeometry relative="1" as="geometry">
            <mxPoint x="70" y="400" as="targetPoint" />
          </mxGeometry>
        </mxCell>
        <mxCell id="ckYTwGQyP7OyvQcxoSIF-1" value="tccm-client SDK" style="rounded=1;whiteSpace=wrap;html=1;" vertex="1" parent="1">
          <mxGeometry x="10" y="297.5" width="120" height="55" as="geometry" />
        </mxCell>
        <mxCell id="ckYTwGQyP7OyvQcxoSIF-7" value="" style="edgeStyle=orthogonalEdgeStyle;rounded=0;orthogonalLoop=1;jettySize=auto;html=1;" edge="1" parent="1" source="ckYTwGQyP7OyvQcxoSIF-2" target="ckYTwGQyP7OyvQcxoSIF-3">
          <mxGeometry relative="1" as="geometry" />
        </mxCell>
        <mxCell id="ckYTwGQyP7OyvQcxoSIF-2" value="tencentcloud_cloudmonitor_agent" style="rounded=1;whiteSpace=wrap;html=1;" vertex="1" parent="1">
          <mxGeometry x="290" y="292.5" width="210" height="65" as="geometry" />
        </mxCell>
        <mxCell id="ckYTwGQyP7OyvQcxoSIF-6" value="" style="edgeStyle=orthogonalEdgeStyle;rounded=0;orthogonalLoop=1;jettySize=auto;html=1;" edge="1" parent="1" source="ckYTwGQyP7OyvQcxoSIF-3" target="ckYTwGQyP7OyvQcxoSIF-5">
          <mxGeometry relative="1" as="geometry" />
        </mxCell>
        <mxCell id="ckYTwGQyP7OyvQcxoSIF-3" value="云监控接口机" style="rounded=1;whiteSpace=wrap;html=1;" vertex="1" parent="1">
          <mxGeometry x="550" y="297.5" width="100" height="55" as="geometry" />
        </mxCell>
        <mxCell id="ckYTwGQyP7OyvQcxoSIF-5" value="云监控后端" style="ellipse;whiteSpace=wrap;html=1;aspect=fixed;" vertex="1" parent="1">
          <mxGeometry x="670" y="250" width="150" height="150" as="geometry" />
        </mxCell>
        <mxCell id="ckYTwGQyP7OyvQcxoSIF-12" value="" style="edgeStyle=orthogonalEdgeStyle;rounded=0;orthogonalLoop=1;jettySize=auto;html=1;" edge="1" parent="1" target="ckYTwGQyP7OyvQcxoSIF-11">
          <mxGeometry relative="1" as="geometry">
            <mxPoint x="70" y="400" as="sourcePoint" />
            <Array as="points">
              <mxPoint x="70" y="400" />
              <mxPoint x="600" y="400" />
            </Array>
          </mxGeometry>
        </mxCell>
        <mxCell id="ckYTwGQyP7OyvQcxoSIF-11" value="" style="shape=waypoint;size=6;pointerEvents=1;points=[];fillColor=#ffffff;resizable=0;rotatable=0;perimeter=centerPerimeter;snapToPoint=1;rounded=1;" vertex="1" parent="1">
          <mxGeometry x="580" y="340" width="40" height="40" as="geometry" />
        </mxCell>
        <mxCell id="ckYTwGQyP7OyvQcxoSIF-14" value="数据写到agent" style="text;html=1;align=center;verticalAlign=middle;resizable=0;points=[];autosize=1;strokeColor=none;" vertex="1" parent="1">
          <mxGeometry x="165" y="292.5" width="90" height="20" as="geometry" />
        </mxCell>
        <mxCell id="ckYTwGQyP7OyvQcxoSIF-16" value="数据直接写到云监控接口机" style="text;html=1;align=center;verticalAlign=middle;resizable=0;points=[];autosize=1;strokeColor=none;" vertex="1" parent="1">
          <mxGeometry x="230" y="410" width="160" height="20" as="geometry" />
        </mxCell>
      </root>
    </mxGraphModel>
  </diagram>
</mxfile>
